HIERARCHY
ROOT Hip
{
  OFFSET 0.0 0.0 0.0
  CHANNELS 6 Xposition Yposition Zposition Xrotation Yrotation Zrotation
  JOINT LowerSpine
  {
    OFFSET 0.0 0.061367 -0.03653
    CHANNELS 3 Xrotation Yrotation Zrotation
    JOINT MiddleSpine
    {
      OFFSET 0.0 0.056002 0.002633
      CHANNELS 3 Xrotation Yrotation Zrotation
      JOINT Chest
      {
        OFFSET 0.0 0.069296 -0.013882
        CHANNELS 3 Xrotation Yrotation Zrotation
        JOINT Neck
        {
          OFFSET 0.0 0.156156 -0.002923
          CHANNELS 3 Xrotation Yrotation Zrotation
          JOINT Head
          {
            OFFSET 0.0 0.088183 0.023986
            CHANNELS 3 Xrotation Yrotation Zrotation
            End Site
            {
              OFFSET 1e-06 0.123215 0.003678
            }
          }
        }
        JOINT LClavicle
        {
          OFFSET 0.014189 0.150698 0.046467
          CHANNELS 3 Xrotation Yrotation Zrotation
          JOINT LShoulder
          {
            OFFSET 0.082893 0.021616 -0.034976
            CHANNELS 3 Xrotation Yrotation Zrotation
            JOINT LForearm
            {
              OFFSET 0.195645 -0.000695 -0.001695
              CHANNELS 3 Xrotation Yrotation Zrotation
              JOINT LHand
              {
                OFFSET 0.163209 0.000474 -0.000977
                CHANNELS 3 Xrotation Yrotation Zrotation
                End Site
                {
                  OFFSET 0.0 0.006864 0.0
                }
              }
            }
          }
        }
        JOINT RClavicle
        {
          OFFSET -0.014189 0.150698 0.046467
          CHANNELS 3 Xrotation Yrotation Zrotation
          JOINT RShoulder
          {
            OFFSET -0.082908 0.021619 -0.034982
            CHANNELS 3 Xrotation Yrotation Zrotation
            JOINT RForearm
            {
              OFFSET -0.195645 -0.000695 -0.001695
              CHANNELS 3 Xrotation Yrotation Zrotation
              JOINT RHand
              {
                OFFSET -0.163209 0.000474 -0.000977
                CHANNELS 3 Xrotation Yrotation Zrotation
                End Site
                {
                  OFFSET 0.0 0.006864 0.0
                }
              }
            }
          }
        }
      }
    }
  }
  JOINT RThigh
  {
    OFFSET -0.072558 0.02774 -0.005953
    CHANNELS 3 Xrotation Yrotation Zrotation
    JOINT RShin
    {
      OFFSET -0.005253 -0.285537 0.0
      CHANNELS 3 Xrotation Yrotation Zrotation
      JOINT RFoot
      {
        OFFSET 0.0 -0.28038 0.0
        CHANNELS 3 Xrotation Yrotation Zrotation
        JOINT RToe
        {
          OFFSET 0.0 -0.030816 0.064441
          CHANNELS 3 Xrotation Yrotation Zrotation
          End Site
          {
            OFFSET 0.0 0.0 0.043231
          }
        }
      }
    }
  }
  JOINT LThigh
  {
    OFFSET 0.072557 0.027741 -0.005953
    CHANNELS 3 Xrotation Yrotation Zrotation
    JOINT LShin
    {
      OFFSET 0.005253 -0.285539 0.0
      CHANNELS 3 Xrotation Yrotation Zrotation
      JOINT LFoot
      {
        OFFSET 0.0 -0.28038 0.0
        CHANNELS 3 Xrotation Yrotation Zrotation
        JOINT LToe
        {
          OFFSET 0.0 -0.030816 0.064441
          CHANNELS 3 Xrotation Yrotation Zrotation
          End Site
          {
            OFFSET 0.0 0.0 0.043231
          }
        }
      }
    }
  }
}
MOTION
Frames: 12
Frame Time: 0.03333333333333333
-0.027582 0.563821 -0.053979 4.946168 -1.368603 -1.173473 1.513618 -0.044408 -0.518861 -0.048308 1.47181 0.079949 -3.393788 3.759843 -1.045522 -0.419501 0.409866 0.146988 0.09654 -0.240847 -0.051656 -0.868397 -2.215389 -6.45527 20.696333 -19.926376 -44.084019 11.716123 -38.907791 2.152884 0.213055 0.292849 -0.198929 -1.900246 1.052836 7.670618 13.854836 24.073582 46.574078 7.994071 32.506969 -3.04534 0.064062 -0.448383 -0.018985 -19.613354 -0.754514 -4.927595 18.790922 -2.99858 4.500581 -2.021501 1.379259 0.085634 0.068472 0.690385 0.160133 -11.574128 7.333665 11.122419 12.507997 7.765047 -7.412418 -2.582343 -0.363592 0.198654 0.120381 -0.248532 -0.105995 
-0.022092 0.562943 -0.056256 4.331113 -0.18475 -2.139829 1.450049 -0.186284 -0.097433 -0.970288 1.427077 0.652553 -3.951469 2.780398 0.788708 0.109742 0.343788 -0.078108 0.078703 -0.323345 -0.088139 -0.981495 -3.03571 -6.955914 19.13092 -16.432981 -46.469738 10.283385 -38.04866 4.306399 0.161866 0.268251 -0.182446 -2.204989 1.140777 7.90217 13.32904 17.411732 47.448513 8.547737 34.813755 -4.981059 -0.16764 -0.311773 -0.039163 -17.313896 -3.491191 -5.503369 16.204407 -3.988744 4.576035 -1.139627 0.933035 -0.238411 -0.052159 0.512377 0.166592 -11.92951 7.068131 9.519855 11.1769 6.263324 -5.957703 -2.365631 -0.201508 0.61431 0.14168 -0.275701 -0.084638 
-0.021397 0.564524 -0.059523 3.237861 0.927177 -2.331808 1.468303 -0.267856 -0.256168 -0.851488 1.413893 0.767088 -3.64825 2.269892 1.547456 0.250832 0.285661 -0.084765 0.064909 -0.247892 -0.084396 -1.034343 -3.085224 -7.338967 17.629169 -14.828766 -47.807766 7.407376 -36.987263 4.018239 0.116762 0.222539 -0.14795 -2.076729 1.515318 7.719222 10.67068 13.195051 47.525921 5.325555 39.129921 -5.382255 -0.135954 -0.273659 -0.032555 -15.871118 -5.161761 -5.640618 13.728207 -4.454541 4.584115 -1.300892 1.071612 -0.15421 -0.014616 0.478428 0.143394 -11.399058 5.23965 8.165656 10.516921 4.94269 -4.799654 -2.841671 -0.032004 0.704115 0.114116 -0.187012 -0.043295 
-0.025029 0.570058 -0.057887 2.472586 1.667017 -2.529411 1.344711 -0.322587 -0.278112 -0.668307 1.436985 0.807415 -3.353504 2.361517 1.766323 0.254046 0.272058 -0.133672 0.062176 -0.240314 -0.079204 -1.008368 -2.907635 -8.134554 16.530603 -14.288358 -48.922699 5.915521 -35.692635 3.498015 0.11271 0.211473 -0.14922 -1.874407 1.375298 7.688293 7.509027 10.564729 47.635162 2.51811 44.183868 -5.677822 -0.11323 -0.266612 -0.029069 -14.024883 -5.295213 -4.771988 12.00528 -4.133292 4.05805 -1.309497 1.189872 -0.071996 0.00595 0.481723 0.14374 -9.181496 4.472012 7.044971 8.879841 4.206788 -3.861777 -3.153336 0.197625 0.821196 0.11154 -0.16078 -0.033235 
-0.029734 0.571112 -0.057456 1.6177 1.181009 -2.682414 1.276307 -0.32361 -0.262965 -0.486066 1.462106 0.881731 -2.738456 2.602558 1.971398 0.267198 0.293732 -0.185913 0.061701 -0.248999 -0.073832 -0.943075 -2.76889 -8.938307 15.478397 -14.587636 -50.583881 5.102547 -34.378998 3.033266 0.115711 0.208641 -0.152792 -1.665801 1.068874 7.425409 2.271105 8.517913 47.518856 -1.816135 49.153702 -6.515577 -0.100378 -0.264555 -0.027482 -11.621155 -4.689779 -3.312097 9.464481 -3.695265 3.389915 -1.516489 1.315482 -0.003595 0.018437 0.489265 0.151121 -6.901294 3.495421 6.100692 6.954436 3.211209 -2.76939 -3.371426 0.563169 0.993465 0.12015 -0.15237 -0.030831 
-0.032632 0.569279 -0.056579 1.338664 0.527567 -2.783146 1.120604 -0.284506 -0.212866 -0.318091 1.489157 0.970285 -2.158225 2.750871 2.286811 0.250935 0.315332 -0.236233 0.06092 -0.250797 -0.067809 -0.828112 -2.487052 -9.66387 14.829489 -14.359366 -52.58992 4.309267 -33.429207 2.539642 0.114603 0.196837 -0.15096 -1.344019 0.807721 6.964423 -4.678493 6.115722 46.535282 -7.396137 54.912151 -7.667979 -0.091705 -0.262281 -0.026062 -9.73279 -3.531315 -1.973087 7.396251 -3.226029 2.807665 -1.883393 1.437622 0.076718 0.019057 0.483352 0.160079 -5.807284 2.260397 5.635438 6.338759 2.372419 -1.758833 -3.588974 1.020369 1.174069 0.129775 -0.142897 -0.027645 
-0.032274 0.566354 -0.052382 1.627957 -0.124439 -2.626174 0.923576 -0.203394 -0.178642 -0.26859 1.385275 1.001068 -1.654154 2.472859 2.708422 0.250137 0.29914 -0.289409 0.054355 -0.210064 -0.053213 -0.721375 -2.019352 -10.471225 14.216259 -13.855632 -54.938946 3.450485 -31.815722 1.782503 0.097321 0.162443 -0.124785 -0.926658 0.540818 6.551481 -13.015102 4.208384 44.896671 -13.285812 62.423954 -9.711352 -0.040041 -0.253299 -0.016419 -8.036469 -2.220648 -1.187578 5.005513 -2.591735 2.270664 -2.341944 1.49901 0.191479 0.028544 0.441941 0.146303 -5.142253 1.023421 5.302626 5.823989 2.084681 -0.754035 -3.807024 1.578357 1.330561 0.120871 -0.106176 -0.014971 
-0.027684 0.563978 -0.039447 1.55776 -0.944142 -2.385059 0.704811 -0.086968 -0.124262 -0.273589 1.236501 0.978759 -0.906303 2.052435 3.346194 0.203693 0.244363 -0.321741 0.044873 -0.157179 -0.037325 -0.746761 -1.494012 -11.492022 14.386236 -13.539112 -57.465866 3.108963 -30.581936 1.079283 0.077831 0.12748 -0.094654 -0.44384 0.272974 6.129038 -21.20454 2.794114 42.547016 -17.578873 71.86956 -13.570547 0.000663 -0.229145 -0.010641 -5.996242 -1.260146 -0.693365 2.715524 -1.970939 1.684981 -2.556366 1.686396 0.388957 0.032624 0.370383 0.128096 -3.168976 0.445325 4.744899 4.564823 2.22595 0.177236 -4.108416 2.205054 1.521544 0.100043 -0.063209 -0.003443 
-0.020659 0.565876 -0.02327 1.541571 -1.539453 -2.384357 0.458188 0.029976 -0.039449 -0.342088 1.072395 0.911437 -0.536169 1.402695 3.703878 0.114101 0.180296 -0.333405 0.034567 -0.1051 -0.021089 -0.799508 -0.969401 -12.49604 15.065859 -13.997741 -59.309723 3.840326 -29.821928 0.518178 0.06282 0.103725 -0.072141 -0.069839 -0.041293 5.852968 -27.385658 2.551846 40.181469 -18.266956 78.671295 -18.684864 0.022012 -0.19409 -0.009067 -4.574774 -0.770107 -0.57758 1.531838 -1.336895 1.168881 -2.43645 1.782158 0.581485 0.04468 0.300954 0.105215 -1.06071 0.576005 4.253726 3.396078 2.92186 0.685718 -4.330684 2.697724 1.70953 0.075608 -0.029116 0.006626 
-0.012054 0.569108 -0.010505 1.396147 -1.866056 -2.557615 0.215558 0.083808 0.075544 -0.32712 1.009765 0.882329 -0.482568 0.950358 3.920635 -0.040221 0.108306 -0.352368 0.026656 -0.081278 -0.012063 -0.889047 -0.730684 -13.405059 15.607476 -14.735008 -60.53331 4.566577 -29.434141 -0.321058 0.054512 0.09267 -0.066738 0.189199 -0.271146 5.584493 -32.689182 3.073049 37.380863 -14.645946 83.049744 -26.043509 0.021568 -0.166616 -0.008313 -3.576074 -0.281834 -0.815763 0.890393 -0.678975 0.739994 -2.370878 1.798887 0.691118 0.050702 0.251274 0.086186 0.636696 1.092901 3.671979 2.442382 3.524783 1.031147 -4.545533 3.051804 1.858384 0.056119 -0.014075 0.008689 
-0.002792 0.574084 -0.002326 1.170167 -2.589808 -2.89238 0.066822 0.120407 0.194466 -0.273084 1.061737 0.956376 -0.325264 0.956034 4.288868 -0.164471 0.086031 -0.352371 0.026013 -0.10735 -0.009928 -0.917022 -0.705149 -14.209513 15.831868 -15.777781 -61.989521 5.299367 -28.802181 -0.940468 0.058644 0.10384 -0.077901 0.371418 -0.385916 5.163029 -36.688698 4.221025 34.767509 -12.968609 84.648918 -29.686153 -0.015003 -0.154659 -0.013011 -2.807682 0.222187 -0.790403 0.603601 -0.408991 0.309688 -2.330386 1.812319 0.704344 0.047557 0.252194 0.090998 1.935501 1.688197 3.264003 1.530512 3.689987 1.412698 -4.797297 3.350283 2.049973 0.054538 -0.035564 -0.007339 
0.004391 0.577763 0.00387 0.903032 -3.197686 -3.201076 -0.083762 0.157623 0.319028 -0.206135 1.124762 1.011589 -0.136947 0.867266 4.32213 -0.315762 0.059115 -0.33448 0.026077 -0.130509 -0.006412 -0.966146 -0.775199 -14.827623 16.165405 -16.643835 -62.754494 5.862166 -28.001945 -1.277722 0.058013 0.104041 -0.080912 0.504597 -0.414069 4.736894 -38.393288 5.550053 32.612785 6.360748 87.423744 -49.602524 -0.06216 -0.120672 -0.017853 -2.035729 0.453317 -0.903418 0.406335 -0.272218 -0.055492 -2.302919 1.78952 0.703984 0.045246 0.241415 0.08966 3.027196 2.004453 2.989662 0.995255 3.697002 1.592942 -5.001474 3.611802 2.225139 0.051235 -0.044695 -0.014747 
